<?xml version="1.0" encoding="UTF-8"?>
<svg id="Camada_2" data-name="Camada 2" xmlns="http://www.w3.org/2000/svg" width="272.1" height="64.93" xmlns:xlink="http://www.w3.org/1999/xlink" viewBox="0 0 272.1 64.93">
  <defs>
    <style>
      .cls-1 {
        fill: url(#Gradiente_sem_nome_272);
      }

      .cls-2 {
        fill: #24c0ff;
      }

      .cls-3 {
        fill: none;
      }

      .cls-4 {
        fill: url(#Gradiente_sem_nome_107);
      }

      .cls-5 {
        clip-path: url(#clippath-2);
      }

      .cls-6 {
        clip-path: url(#clippath);
      }
    </style>
    <clipPath id="clippath">
      <path id="olho" class="cls-3" d="M38.07,15.52c-.19-.19-.45-.3-.72-.3h-9.75c-.27,0-.53.11-.72.3-1.66,1.66-9.78,9.77-11.45,11.42-.19.19-.3.45-.3.72v9.63c0,.27.11.53.3.72,1.67,1.66,9.84,9.82,11.5,11.5.19.19.45.3.72.3h9.57c.27,0,.53-.11.72-.3,1.66-1.67,9.82-9.83,11.49-11.49.19-.19.3-.45.3-.72v-9.72c0-.27-.11-.53-.3-.72-1.66-1.65-9.72-9.7-11.36-11.35ZM35.03,44.34c-1.55,0-3.67,0-5.22,0-.23,0-.44-.11-.6-.31l-5.88-5.65c-.16-.2-.25-.47-.25-.76,0-1.96,0-8.19,0-10.15,0-.28.09-.56.25-.76l5.9-5.69c.16-.2.38-.31.6-.31,1.55,0,3.63.01,5.17.01.22,0,.44.11.6.31l5.95,5.75c.16.2.25.47.25.76,0,1.94,0,8.06,0,10,0,.28-.09.56-.25.76l-5.94,5.73c-.16.2-.38.31-.6.31ZM10.75,23.71v-5.43c0-.65.25-1.26.69-1.67l5.13-5.19c.49-.44,1.08-.68,1.71-.68h5.43c.37,0,.56.45.3.71l-.12.12c-.19.19-.45.3-.72.3h-1.77c-.41,0-.81.17-1.11.46l-2.89,2.89c-.12.12-.28.21-.45.26-.72.19-1.28.76-1.46,1.48-.04.16-.12.3-.24.41h0s-2.86,2.86-2.86,2.86c-.29.29-.46.69-.46,1.1v1.78c0,.27-.11.53-.3.72l-.17.17c-.26.26-.71.08-.71-.3ZM24.01,53.42c.26.26.08.71-.3.71h-5.43c-.63,0-1.22-.23-1.71-.68l-5.13-5.19c-.44-.4-.69-1.01-.69-1.67v-5.43c0-.37.45-.56.71-.3l.13.13c.19.19.3.45.3.72v1.86c0,.41.17.81.46,1.1l2.86,2.86.06.06c.12.12.2.26.25.41.2.65.71,1.16,1.36,1.36.16.05.3.13.41.25l2.96,2.96c.29.29.69.46,1.11.46h1.86c.27,0,.53.11.72.3l.08.08ZM54.13,41.22v5.43c0,.65-.25,1.26-.69,1.67l-5.13,5.19c-.49.44-1.08.68-1.71.68h-5.43c-.37,0-.56-.45-.3-.71l.12-.12c.19-.19.45-.3.72-.3h1.77c.42,0,.81-.17,1.11-.46l2.89-2.89c.12-.12.28-.21.45-.26.71-.19,1.27-.75,1.46-1.46.05-.17.14-.33.26-.45l2.84-2.84c.29-.29.46-.69.46-1.1v-1.78c0-.27.11-.53.3-.72l.17-.17c.26-.26.71-.08.71.3ZM54.13,18.33v5.43c0,.37-.45.56-.71.3l-.13-.13c-.19-.19-.3-.45-.3-.72v-1.86c0-.41-.16-.81-.46-1.1l-2.91-2.91c-.12-.12-.2-.26-.25-.41-.2-.65-.71-1.16-1.36-1.36-.16-.05-.3-.13-.41-.25l-2.96-2.96c-.29-.29-.69-.46-1.1-.46h-1.86c-.27,0-.53-.11-.72-.3l-.08-.08c-.26-.26-.08-.71.3-.71h5.43c.63,0,1.22.23,1.71.68l5.13,5.19c.44.4.69,1.01.69,1.67ZM21.39,13.02h4.36c.38,0,.56.45.3.72l-12.26,12.26c-.09.09-.19.12-.3.12-.22,0-.42-.17-.42-.42v-4.36c0-.11.05-.22.13-.3,3.06-3.06,4.83-4.83,7.89-7.89.08-.08.19-.13.31-.13ZM38.88,13.74c-.27-.27-.08-.72.3-.72h4.35c.11,0,.23.05.31.13,3.06,3.06,4.83,4.83,7.89,7.89.08.08.13.19.13.3v4.36c0,.25-.21.42-.42.42-.1,0-.21-.04-.3-.12l-12.26-12.26ZM26,51.19c.27.27.08.72-.3.72h-4.36c-.11,0-.23-.05-.31-.13-3.06-3.06-4.83-4.83-7.89-7.89-.08-.08-.13-.19-.13-.3v-4.36c0-.25.21-.42.42-.42.1,0,.21.04.3.12l12.26,12.26ZM43.49,51.91h-4.35c-.38,0-.56-.45-.3-.72l12.26-12.26c.09-.09.19-.12.3-.12.22,0,.42.17.42.42v4.36c0,.11-.05.22-.13.3-3.06,3.06-4.83,4.83-7.89,7.89-.08.08-.19.13-.31.13Z"/>
    </clipPath>
    <radialGradient id="Gradiente_sem_nome_272" data-name="Gradiente sem nome 272" cx="32.35" cy="32.76" fx="32.35" fy="32.76" r="23.81" gradientUnits="userSpaceOnUse">
      <stop offset="0" stop-color="#f4f6fb"/>
      <stop offset=".11" stop-color="#cbcbcb"/>
      <stop offset=".18" stop-color="#cccccd"/>
      <stop offset=".21" stop-color="#d1d2d5"/>
      <stop offset=".24" stop-color="#dadce2"/>
      <stop offset=".25" stop-color="#e0e2ea"/>
      <stop offset=".35" stop-color="#dee0e8"/>
      <stop offset=".39" stop-color="#dadce1"/>
      <stop offset=".41" stop-color="#d3d4d5"/>
      <stop offset=".42" stop-color="#d3d3d4"/>
      <stop offset=".59" stop-color="#d3d3d4"/>
      <stop offset=".66" stop-color="#a8abb2"/>
      <stop offset=".75" stop-color="#7b818e"/>
      <stop offset=".79" stop-color="#6a7181"/>
      <stop offset=".85" stop-color="#9ea1a9"/>
      <stop offset=".88" stop-color="#b8babd"/>
      <stop offset=".88" stop-color="#b8babd"/>
      <stop offset=".94" stop-color="#cbcbcb"/>
      <stop offset=".98" stop-color="#cdcdcd"/>
      <stop offset="1" stop-color="#d3d3d4"/>
    </radialGradient>
    <clipPath id="clippath-2">
      <path id="nator" class="cls-3" d="M193.84,22.38c-.43-.43-.97-.65-1.54-.65h-7.22c-.57,0-1.11.22-1.54.65l-3.01,3.01c-.43.43-.65.97-.65,1.54v15.88c0,.25.18.43.43.43h4.52c.25,0,.43-.18.43-.43v-3.69c0-.11-.04-.22-.14-.32l-1.86-1.86c-.11-.11-.14-.22-.14-.32v-1.54c0-.25.18-.43.43-.43h10.3c.25,0,.43.18.43.43v1.54c0,.11-.04.22-.14.32l-1.86,1.86c-.11.11-.14.22-.14.32v3.69c0,.25.18.43.43.43h4.52c.25,0,.43-.18.43-.43v-15.88c0-.57-.22-1.11-.65-1.54l-3.01-3.01ZM194.27,29.91c0,.25-.18.43-.43.43h-10.3c-.25,0-.43-.18-.43-.43v-1.54c0-.11.04-.22.14-.32l1.86-1.86c.11-.11.22-.14.32-.14h6.5c.11,0,.22.04.32.14l1.86,1.86c.11.11.14.22.14.32v1.54ZM218.62,22.16v3.98c0,.25-.18.43-.43.43h-1.62c-.11,0-.22-.04-.32-.14l-1.86-1.86c-.11-.11-.22-.14-.32-.14h-1.54c-.25,0-.43.18-.43.43v17.96c0,.25-.18.43-.43.43h-3.44c-.25,0-.43-.18-.43-.43v-17.96c0-.25-.18-.43-.43-.43h-1.54c-.11,0-.22.04-.32.14l-1.86,1.86c-.11.11-.22.14-.32.14h-1.62c-.25,0-.43-.18-.43-.43v-3.98c0-.25.18-.43.43-.43h16.51c.25,0,.43.18.43.43ZM236.33,22.38c-.39-.43-.97-.65-1.54-.65h-7.22c-.57,0-1.11.22-1.51.65l-3.05,3.01c-.39.43-.65.97-.65,1.54v11.11c0,.57.25,1.11.65,1.54l3.05,3.01c.39.43.93.65,1.51.65h7.22c.57,0,1.15-.22,1.54-.65l3.05-3.01c.39-.43.61-.97.61-1.54v-11.11c0-.57-.22-1.11-.61-1.54l-3.05-3.01ZM235.69,38.51c0,.25-.18.43-.43.43h-8.15c-.22,0-.43-.18-.43-.43v-12.04c0-.25.22-.43.43-.43h8.15c.25,0,.43.18.43.43v12.04ZM252.35,36.43h3.8c.57,0,1.11-.22,1.54-.65l3.01-2.65c.43-.43.65-.97.65-1.54v-4.66c0-.57-.22-1.11-.65-1.54l-3.01-3.01c-.43-.43-.97-.65-1.54-.65h-11.98c-.24,0-.43.19-.43.43v20.65c0,.24.19.43.43.43h3.44c.24,0,.43-.19.43-.43v-3.3c0-.13.13-.21.25-.16l8.58,3.82c.11.04.25.07.36.07h3.69c.24,0,.43-.19.43-.43v-2.08c0-.18-.11-.32-.29-.39l-8.78-3.48c-.22-.11-.14-.43.07-.43ZM248.47,32.49c-.23,0-.42-.19-.42-.42,0,0,0,0,0,0v-1.54c0-.11-.04-.22-.14-.32l-1.86-1.86c-.11-.11-.14-.22-.14-.32v-1.54c0-.24.19-.43.43-.43h10.29c.24,0,.43.19.43.43v5.59c0,.24-.19.43-.43.43h-8.15ZM176.13,22.17v20.65c0,.24-.19.43-.43.43h-7.99c-.11,0-.22-.04-.32-.14l-4.82-4.82c-.1-.1-.15-.23-.15-.37v-6.06c0-.08-.03-.16-.09-.22l-5.45-5.45c-.11-.11-.22-.14-.32-.14h-3.66c-.18,0-.29.22-.18.36l1.76,2.08c.07.11.11.18.11.29v14.05c0,.24-.19.43-.43.43h-3.44c-.24,0-.43-.19-.43-.43v-20.65c0-.24.19-.43.43-.43h7.99c.11,0,.22.04.32.14l4.82,4.82c.1.1.15.23.15.37v6.06c0,.08.03.16.09.22l5.45,5.45c.11.11.22.14.32.14h3.66c.18,0,.29-.22.18-.36l-1.76-2.08c-.07-.11-.11-.18-.11-.29v-14.05c0-.24.19-.43.43-.43h3.44c.24,0,.43.19.43.43Z"/>
    </clipPath>
    <linearGradient id="Gradiente_sem_nome_107" data-name="Gradiente sem nome 107" x1="255.93" y1="60.82" x2="156.96" y2="3.68" gradientUnits="userSpaceOnUse">
      <stop offset=".03" stop-color="#f4f6fb"/>
      <stop offset=".03" stop-color="#ebedf3"/>
      <stop offset=".04" stop-color="#d2d6dd"/>
      <stop offset=".06" stop-color="#abb0ba"/>
      <stop offset=".07" stop-color="#757b8b"/>
      <stop offset=".07" stop-color="#6a7181"/>
      <stop offset=".18" stop-color="#f4f6fb"/>
      <stop offset=".24" stop-color="#f4f6fb"/>
      <stop offset=".25" stop-color="#ebedf3"/>
      <stop offset=".26" stop-color="#d3d5dd"/>
      <stop offset=".27" stop-color="#b7bac5"/>
      <stop offset=".31" stop-color="#f4f6fb"/>
      <stop offset=".32" stop-color="#eceef2"/>
      <stop offset=".33" stop-color="#d7d8da"/>
      <stop offset=".34" stop-color="#cbcbcb"/>
      <stop offset=".35" stop-color="#c8c8c9"/>
      <stop offset=".36" stop-color="#c0c1c3"/>
      <stop offset=".37" stop-color="#b3b5b9"/>
      <stop offset=".37" stop-color="#a0a3aa"/>
      <stop offset=".38" stop-color="#888d98"/>
      <stop offset=".38" stop-color="#6a7181"/>
      <stop offset=".38" stop-color="#6a7181"/>
      <stop offset=".45" stop-color="#f4f6fb"/>
      <stop offset=".45" stop-color="#ebedf3"/>
      <stop offset=".46" stop-color="#d2d6de"/>
      <stop offset=".46" stop-color="#b4b8c4"/>
      <stop offset=".52" stop-color="#e0e2ea"/>
      <stop offset=".59" stop-color="#b4b8c4"/>
      <stop offset=".61" stop-color="#f4f6fb"/>
      <stop offset=".61" stop-color="#f4f6fb"/>
      <stop offset=".65" stop-color="#b4b8c4"/>
      <stop offset=".72" stop-color="#f4f6fb"/>
      <stop offset=".75" stop-color="#b4b8c4"/>
      <stop offset=".77" stop-color="#b4b8c4"/>
      <stop offset=".79" stop-color="#f4f6fb"/>
      <stop offset=".9" stop-color="#f4f6fb"/>
      <stop offset=".95" stop-color="#6a7181"/>
    </linearGradient>
  </defs>
  <g id="TRANSPARENTE">
    <g id="Logotipo">
      <rect id="bg" class="cls-3" width="272.1" height="64.93"/>
      <g id="Logotipo-2" data-name="Logotipo">
        <g>
          <path class="cls-2" d="M38.4,25.85v3.6c0,.12-.1.22-.22.22h-11.47c-.12,0-.22-.1-.22-.22v-2.63c0-.12.1-.22.22-.22h6.42s.09-.02.14-.06l.82-.81s.09-.06.14-.06h3.99c.1,0,.19.08.19.19ZM36.05,31.89h-.04s-.01,0-.02,0h-2.08s-.07-.02-.11-.06l-.82-.81s-.09-.06-.14-.06h-3.95c-.12,0-.22.1-.22.22v.72h0v2.38c0,.12.1.22.22.22h7.12c.12,0,.22-.1.22-.22v-2.2c0-.1-.08-.19-.19-.19ZM34.13,35.98h-1.54s-.05,0-.08.04l-.46.46s-.05.04-.08.04h-1.12c-.12,0-.22.1-.22.22v2.63c0,.12.1.22.22.22h3.16c.12,0,.22-.1.22-.22v-2.85h0v-.42c0-.06-.05-.11-.11-.11Z"/>
          <g class="cls-6">
            <rect class="cls-1" x="8.73" y="8.75" width="47.24" height="48.01"/>
          </g>
        </g>
        <g id="Logotipo-3" data-name="Logotipo">
          <path id="LEad" class="cls-2" d="M82.41,37.22v5.59c0,.25-.18.43-.43.43h-11.99c-.57,0-1.11-.22-1.54-.65l-3.01-3.01c-.43-.43-.65-.97-.65-1.54v-15.88c0-.25.18-.43.43-.43h3.44c.25,0,.43.18.43.43v16.35c0,.25.18.43.43.43h8.4c.11,0,.22-.04.32-.14l1.86-1.86c.11-.11.22-.14.32-.14h1.54c.25,0,.43.18.43.43ZM103.34,21.73h-16.75c-.25,0-.43.18-.43.43v20.65c0,.25.18.43.43.43h16.75c.25,0,.43-.18.43-.43v-3.44c0-.25-.18-.43-.43-.43h-12.7c-.11,0-.22-.04-.32-.14l-1.86-1.86c-.11-.11-.14-.22-.14-.32v-1.54c0-.25.18-.43.43-.43h12.44c.25,0,.43-.18.43-.43v-3.44c0-.25-.18-.43-.43-.43h-10.54c-.11,0-.22-.04-.32-.14l-1.86-1.86c-.11-.11-.14-.22-.14-.32v-1.54c0-.25.18-.43.43-.43h14.6c.25,0,.43-.18.43-.43v-3.44c0-.25-.18-.43-.43-.43ZM124.51,25.39c.43.43.65.97.65,1.54v15.88c0,.25-.18.43-.43.43h-4.52c-.25,0-.43-.18-.43-.43v-3.69c0-.11.04-.22.14-.32l1.86-1.86c.11-.11.14-.22.14-.32v-1.54c0-.25-.18-.43-.43-.43h-10.3c-.25,0-.43.18-.43.43v1.54c0,.11.04.22.14.32l1.86,1.86c.11.11.14.22.14.32v3.69c0,.25-.18.43-.43.43h-4.52c-.25,0-.43-.18-.43-.43v-15.88c0-.57.22-1.11.65-1.54l3.01-3.01c.43-.43.97-.65,1.54-.65h7.22c.57,0,1.11.22,1.54.65l3.01,3.01ZM121.93,28.36c0-.11-.04-.22-.14-.32l-1.86-1.86c-.11-.11-.22-.14-.32-.14h-6.5c-.11,0-.22.04-.32.14l-1.86,1.86c-.11.11-.14.22-.14.32v1.54c0,.25.18.43.43.43h10.3c.25,0,.43-.18.43-.43v-1.54ZM146.52,26.93v11.11c0,.57-.22,1.11-.65,1.54l-3.01,3.01c-.43.43-.97.65-1.54.65h-11.99c-.25,0-.43-.18-.43-.43v-20.65c0-.25.18-.43.43-.43h11.99c.57,0,1.11.22,1.54.65l3.01,3.01c.43.43.65.97.65,1.54ZM142.22,26.46c0-.25-.18-.43-.43-.43h-10.3c-.25,0-.43.18-.43.43v1.54c0,.11.04.22.14.32l1.86,1.86c.11.11.14.22.14.32v7.99c0,.25.18.43.43.43h8.15c.25,0,.43-.18.43-.43v-12.04Z"/>
          <g class="cls-5">
            <rect class="cls-4" x="148.84" y="16.93" width="114.5" height="30.24"/>
          </g>
        </g>
      </g>
    </g>
  </g>
</svg>