<?xml version="1.0" encoding="UTF-8"?>
<svg id="Camada_2" data-name="Camada 2" xmlns="http://www.w3.org/2000/svg" width="29" height="29" viewBox="0 0 29 29">
  <defs>
    <style>
      .cls-1 {
        fill: #f4f6fb;
      }
    </style>
  </defs>
  <g id="Camada_1-2" data-name="Camada 1">
    <path class="cls-1" d="M11.51,15.66c-.2-.52-.25-1.31-.11-1.84.3-1.14,1.17-2.06,2.25-2.36.22-.06.49-.08.93-.06.74.02,1.2.17,1.76.57,1.24.89,1.68,2.62.99,4-.2.42-.73,1.01-1.14,1.27-1.69,1.09-3.97.32-4.69-1.57h0Z"/>
    <rect class="cls-1" x="18.36" y="7.57" width="3.07" height="3.07"/>
    <path class="cls-1" d="M20.49,12.74h1.4l-.02,3.88-.02,3.88-.15.32c-.19.41-.55.76-.95.95l-.32.15h-11.93l-.32-.16c-.4-.2-.8-.63-.95-1.04-.11-.3-.12-.41-.12-4.14v-3.84h2.76l-.14.41c-.21.61-.24,1.8-.07,2.51.37,1.53,1.33,2.72,2.74,3.38.77.36,1.09.43,2.09.43s.93-.02,1.39-.16c1.8-.55,3.12-2.03,3.47-3.87.15-.81.06-1.93-.23-2.6-.04-.09.05-.1,1.36-.1h0Z"/>
    <path class="cls-1" d="M21.34.06s-.04-.04-.06-.06H0v25.34c1.43,1.43,2.23,2.23,3.66,3.66h25.34V7.72c-2.99-2.99-4.68-4.68-7.66-7.66ZM21.66,23.15c-.82.4-.45.38-7.16.38s-6.39.01-7.14-.35c-.53-.26-1.24-.96-1.48-1.47-.4-.83-.38-.44-.38-7.16s-.02-6.33.38-7.16c.24-.51.95-1.21,1.48-1.47.74-.36.45-.34,7.11-.35,5.26,0,6.13,0,6.42.08,1.26.32,2.24,1.33,2.5,2.56.13.59.13,12.08,0,12.67-.2.94-.89,1.85-1.73,2.26Z"/>
  </g>
</svg>