<?xml version="1.0" encoding="UTF-8"?>
<svg id="Camada_2" data-name="Camada 2" xmlns="http://www.w3.org/2000/svg" width="28.92" height="28.96" viewBox="0 0 28.92 28.96">
  <defs>
    <style>
      .cls-1 {
        fill: #f4f6fb;
      }
    </style>
  </defs>
  <g id="Camada_1-2" data-name="Camada 1">
    <path class="cls-1" d="M28.9,7.69c-3-3-4.68-4.69-7.68-7.69H0v25.3c1.43,1.43,2.23,2.23,3.65,3.66h25.27V7.71l-.02-.02ZM9.6,23.43h-4.19v-5.95c0-3.27.02-5.97.04-5.99.02-.02.96-.03,2.08-.03l2.05.02.02,5.97v5.97ZM7.92,5.45c1.07.23,1.79,1.23,1.66,2.29-.08.66-.58,1.37-1.18,1.66-.61.3-1.42.26-2.01-.1-1.12-.69-1.34-2.25-.46-3.21.53-.57,1.24-.81,1.99-.65ZM12.1,23.43v-11.97h3.23v.82c0,.45.02.82.05.82s.08-.07.14-.16c.15-.25.55-.63.88-.85.75-.48,1.64-.67,2.88-.62,2.55.1,3.7,1.15,4.06,3.7.03.28.07,1.99.09,4.35l.03,3.9h-3.52l-.02-3.51c-.02-3.14-.03-3.53-.12-3.84-.23-.79-.53-1.2-1.04-1.45-.24-.12-.35-.14-.95-.14s-.72.02-.97.14c-.35.16-.77.58-.92.94-.31.71-.3.65-.32,4.38l-.02,3.48h-3.45Z"/>
  </g>
</svg>