<?xml version="1.0" encoding="UTF-8"?>
<svg id="Camada_2" data-name="Camada 2" xmlns="http://www.w3.org/2000/svg" width="29" height="29" viewBox="0 0 29 29">
  <defs>
    <style>
      .cls-1 {
        fill: #f4f6fb;
      }
    </style>
  </defs>
  <g id="Camada_1-2" data-name="Camada 1">
    <path class="cls-1" d="M21.5,11.7h0c-.75-1.96-2.48-3.6-4.53-4.29-.91-.31-2.13-.44-3.09-.33-1.69.17-3.28.95-4.47,2.18-.59.62-.98,1.18-1.34,1.93-.49,1.03-.69,1.92-.69,3.15,0,1.4.36,2.63,1.14,3.87l.27.43-.49,1.42c-.16.47-.29.84-.36,1.07.25-.07.65-.2,1.14-.35l1.49-.48.32.21c.6.39,1.61.76,2.52.92.64.11,1.84.11,2.51,0,2.18-.39,4.04-1.7,5.12-3.6,1.06-1.87,1.23-4.11.45-6.13ZM18.96,17.75c-.24.28-.8.64-1.22.76-.22.06-.41.1-.62.1-.34,0-.72-.09-1.31-.28-1.06-.35-1.54-.57-2.21-1.02-1.11-.76-2.52-2.39-3.09-3.56-.32-.68-.41-1.06-.37-1.65.05-.79.56-1.65,1.13-1.91.38-.18,1-.12,1.23.12.14.16.92,1.95.92,2.18s-.31.65-.5.87c-.1.12-.17.24-.18.28.03.23.83,1.26,1.47,1.75.43.32,1.24.79,1.52.87.1.03.14.04.6-.54.32-.41.44-.55.68-.55.14,0,.71.25,1.16.46,1,.47,1.06.56,1.08.6.19.31-.02,1.18-.3,1.5Z"/>
    <path class="cls-1" d="M21.29.02s-.01-.01-.02-.02H0v25.34c1.43,1.43,2.23,2.23,3.66,3.66h25.34V7.72C25.99,4.71,24.3,3.02,21.29.02ZM16.83,22.83c-.91.23-1.43.28-2.51.24-1.39-.05-2.44-.3-3.53-.85l-.44-.22-2.44.78c-1.35.43-2.45.77-2.47.76,0-.01.34-1.07.78-2.35l.79-2.32-.31-.63c-2.49-4.99.2-10.99,5.6-12.47,1.16-.32,2.23-.39,3.55-.23,3.28.39,6.18,2.76,7.26,5.96.32.94.4,1.52.4,2.78,0,1-.02,1.25-.12,1.76-.74,3.37-3.24,5.97-6.55,6.79Z"/>
  </g>
</svg>